<svg width="46" height="46" viewBox="0 0 46 46" fill="none" xmlns="http://www.w3.org/2000/svg">
<path d="M5.61333 27.6586C3.04038 18.0562 8.73886 8.18618 18.3413 5.61323C27.9436 3.04028 37.8137 8.73876 40.3867 18.3412C42.9596 27.9435 37.2611 37.8136 27.6587 40.3866C18.0563 42.9595 8.18629 37.261 5.61333 27.6586Z" fill="#D9656B"/>
<path d="M25.1034 14.1548C27.1607 13.5689 29.33 14.1914 30.7288 15.8689C32.2264 18.1808 32.2308 20.9397 31.3059 23.2676C30.7048 24.8393 29.8691 26.2797 28.9695 27.5836C28.1648 28.8688 26.2943 31.4867 25.673 31.712C25.0821 31.7551 24.2805 31.2876 23.7466 31.08C20.7282 29.8457 17.4086 28.2517 15.3608 26.0839C13.5613 23.9582 12.7525 20.9481 14.0386 18.604C15.795 15.8957 19.3955 15.369 21.7512 17.0756C22.0615 16.331 22.5163 15.6883 23.1158 15.1487C23.7441 14.6794 24.4176 14.3501 25.1034 14.1548Z" fill="#F1EEED"/>
</svg>
